<svg>

<svg id='trash' width="14" height="16" viewBox="0 0 14 16" fill="none" xmlns="http://www.w3.org/2000/svg">
<path d="M6.33331 6.00002V12H4.99998V6.00002H6.33331Z" fill="#C53030"/>
<path d="M8.99998 6.00002V12H7.66665V6.00002H8.99998Z" fill="#C53030"/>
<path fill-rule="evenodd" clip-rule="evenodd" d="M3.85281 0.666687H10.1472L10.8138 2.66669H13.6666V4.00002H12.3333L11.6666 15.3334H2.33331L1.66665 4.00002H0.333313V2.66669H3.18614L3.85281 0.666687ZM4.5916 2.66669H9.40836L9.18614 2.00002H4.81382L4.5916 2.66669ZM2.99998 4.00002L3.66665 14H10.3333L11 4.00002H2.99998Z" fill="#C53030"/>
</svg>

<svg id='trash-active' width="14" height="16" viewBox="0 0 14 16" fill="none" xmlns="http://www.w3.org/2000/svg">
<path d="M6.33331 6.00002V12H4.99998V6.00002H6.33331Z" fill="#9B2C2C"/>
<path d="M8.99998 6.00002V12H7.66665V6.00002H8.99998Z" fill="#9B2C2C"/>
<path fill-rule="evenodd" clip-rule="evenodd" d="M3.85281 0.666687H10.1472L10.8138 2.66669H13.6666V4.00002H12.3333L11.6666 15.3334H2.33331L1.66665 4.00002H0.333313V2.66669H3.18614L3.85281 0.666687ZM4.5916 2.66669H9.40836L9.18614 2.00002H4.81382L4.5916 2.66669ZM2.99998 4.00002L3.66665 14H10.3333L11 4.00002H2.99998Z" fill="#9B2C2C"/>
</svg>

<svg id='trash-disable' width="14" height="16" viewBox="0 0 14 16" fill="none" xmlns="http://www.w3.org/2000/svg">
<path d="M6.33331 6.00002V12H4.99998V6.00002H6.33331Z" fill="#9DA6B4"/>
<path d="M8.99998 6.00002V12H7.66665V6.00002H8.99998Z" fill="#9DA6B4"/>
<path fill-rule="evenodd" clip-rule="evenodd" d="M3.85281 0.666687H10.1472L10.8138 2.66669H13.6666V4.00002H12.3333L11.6666 15.3334H2.33331L1.66665 4.00002H0.333313V2.66669H3.18614L3.85281 0.666687ZM4.5916 2.66669H9.40836L9.18614 2.00002H4.81382L4.5916 2.66669ZM2.99998 4.00002L3.66665 14H10.3333L11 4.00002H2.99998Z" fill="#9DA6B4"/>
</svg>

<svg id='hvs' width="10" height="14" viewBox="0 0 10 14" fill="none" xmlns="http://www.w3.org/2000/svg">
<path d="M5.89218 0.42C5.89442 0.39678 5.89999 0.366731 5.89999 0.341464C5.89999 0.152976 5.76063 0 5.5889 0C5.51579 0 5.46441 0.0300488 5.44452 0.0385853C4.3883 0.491366 0.299988 4.95669 0.299988 8.87803C0.299988 11.7067 2.38941 14 4.96665 14C7.80059 14 9.63332 11.38 9.63332 8.87803C9.63332 4.71663 5.16486 3.94834 5.89218 0.42Z" fill="#3698FA"/>
</svg>

<svg id='gvs' width="10" height="14" viewBox="0 0 10 14" fill="none" xmlns="http://www.w3.org/2000/svg">
<path d="M5.89218 0.42C5.89442 0.39678 5.89999 0.366731 5.89999 0.341464C5.89999 0.152976 5.76063 0 5.5889 0C5.51579 0 5.46441 0.0300488 5.44452 0.0385853C4.3883 0.491366 0.299988 4.95669 0.299988 8.87803C0.299988 11.7067 2.38941 14 4.96665 14C7.80059 14 9.63332 11.38 9.63332 8.87803C9.63332 4.71663 5.16486 3.94834 5.89218 0.42Z" fill="#F46B4D"/>
</svg>
